<?xml version="1.0" encoding="UTF-8"?>
<!DOCTYPE svg PUBLIC "-//W3C//DTD SVG 1.1//EN" "http://www.w3.org/Graphics/SVG/1.1/DTD/svg11.dtd">
<!-- Creator: CorelDRAW X8 -->
<svg xmlns="http://www.w3.org/2000/svg" xml:space="preserve" width="57.6807mm" height="15.8949mm" version="1.1" style="shape-rendering:geometricPrecision; text-rendering:geometricPrecision; image-rendering:optimizeQuality; fill-rule:evenodd; clip-rule:evenodd"
viewBox="0 0 2091 576"
 xmlns:xlink="http://www.w3.org/1999/xlink">
 <defs>
  <style type="text/css">
   <![CDATA[
    .fil0 {fill:#E31E24;fill-rule:nonzero}
   ]]>
  </style>
 </defs>
 <g id="Слой_x0020_1">
  <metadata id="CorelCorpID_0Corel-Layer"/>
  <g id="_932715456">
   <polygon class="fil0" points="1772,491 1808,342 1905,342 1905,575 1832,575 1832,436 1798,575 1744,575 1710,437 1710,575 1638,575 1638,341 1738,341 "/>
   <path class="fil0" d="M1397 561c-6,-6 -10,-11 -12,-17 -3,-6 -4,-12 -4,-20l0 -181 72 0 0 171 79 0 0 -170 73 0 0 169c0,7 -1,14 -1,19 -1,6 -2,11 -5,16 -2,5 -6,10 -10,14 -6,6 -12,10 -19,11 -6,2 -15,3 -25,3l-96 0c-8,0 -15,-1 -21,-1 -7,-1 -13,-3 -18,-5 -5,-2 -10,-5 -13,-9z"/>
   <polygon class="fil0" points="1247,342 1322,342 1322,576 1247,576 "/>
   <polygon class="fil0" points="1051,491 1088,342 1185,342 1185,575 1111,575 1111,436 1077,575 1023,575 989,437 989,575 917,575 917,341 1018,341 "/>
   <polygon class="fil0" points="885,576 686,576 686,343 885,343 885,406 760,406 760,432 885,432 885,484 762,484 762,511 885,511 "/>
   <path class="fil0" d="M434 343l160 0c7,0 13,0 17,1 5,0 9,2 14,3 4,2 8,5 11,8 6,5 10,10 12,15 3,6 5,12 5,19l0 31c0,5 -1,10 -3,14 -2,4 -4,8 -8,13 -3,3 -6,6 -10,8 -4,3 -7,5 -9,6 6,1 10,3 13,5 3,3 6,6 8,10 4,6 6,11 8,16 1,4 2,10 2,16l0 68 -74 0 0 -88 -74 0 0 88 -72 0 0 -233zm73 91l72 0 0 -28 -72 0 0 28z"/>
   <path class="fil0" d="M184 342l161 0c7,0 13,1 18,1 4,0 9,2 13,3 5,2 9,5 12,8 6,6 10,13 13,20 2,7 3,15 3,26l0 38c0,11 -1,21 -3,28 -2,7 -6,13 -12,19 -5,5 -12,8 -21,11 -8,2 -14,3 -16,3l-94 1 0 75 -74 0 0 -233zm74 103l72 0 0 -40 -72 0 0 40z"/>
   <path class="fil0" d="M2079 21c5,5 8,11 10,18 1,6 2,14 2,24l0 95c0,15 -1,26 -2,34 -2,8 -6,16 -13,23 -5,6 -11,10 -17,13 -5,2 -12,4 -18,5 -6,1 -14,1 -23,1l-76 0c-10,0 -18,0 -25,-1 -6,0 -12,-2 -18,-4 -6,-2 -11,-5 -16,-10 -6,-6 -10,-12 -12,-18 -2,-7 -3,-14 -3,-24l0 -118c0,-7 0,-13 2,-18 1,-5 3,-10 5,-14 3,-5 7,-9 12,-12 7,-6 14,-10 21,-11 7,-2 15,-3 25,-3l13 0 76 0c8,0 15,0 22,2 7,1 13,3 19,6 6,3 11,7 16,12zm-60 45l-80 0 0 105 80 0 0 -105z"/>
   <polygon class="fil0" points="1835,234 1762,234 1762,88 1738,88 1738,53 1805,2 1835,2 "/>
   <path class="fil0" d="M1608 105c5,6 8,13 10,19 1,6 2,13 2,23l0 35c0,8 -1,16 -4,22 -2,6 -7,12 -13,18 -5,4 -11,7 -18,9 -7,2 -16,3 -25,3l-160 0 0 -64 148 0 0 -26 -87 0c-11,0 -19,0 -25,-1 -6,-2 -12,-5 -18,-10 -6,-5 -11,-11 -13,-18 -3,-6 -4,-14 -4,-23l0 -38c0,-7 0,-13 1,-17 1,-5 3,-10 5,-14 3,-5 6,-9 10,-12 6,-5 12,-8 18,-9 6,-1 14,-1 25,-1l146 0 0 64 -134 0 0 23 81 0c10,0 18,1 24,1 6,1 11,2 17,5 6,2 10,6 14,11z"/>
   <polygon class="fil0" points="1265,0 1339,0 1339,234 1265,234 "/>
   <path class="fil0" d="M984 2l160 0c7,0 13,0 18,0 4,1 8,2 13,4 4,1 8,4 12,7 5,5 9,10 12,16 2,5 4,11 4,18l0 31c0,6 -1,10 -3,14 -1,4 -4,8 -8,13 -3,3 -6,6 -10,8 -4,3 -7,5 -9,6 6,2 10,4 13,6 3,2 6,5 8,9 4,6 6,11 8,16 1,4 2,10 2,17l0 67 -74 0 0 -88 -73 0 0 88 -73 0 0 -232zm73 90l73 0 0 -27 -73 0 0 27z"/>
   <path class="fil0" d="M796 0l96 0c9,0 17,1 23,3 7,2 13,6 19,12 7,6 12,13 14,20 2,8 4,17 4,29l0 170 -75 0 0 -92 -77 0 0 92 -72 0 0 -182c0,-7 1,-14 4,-20 2,-5 6,-11 12,-17 9,-10 26,-15 52,-15zm4 92l76 0 0 -27 -76 0 0 27z"/>
   <polygon class="fil0" points="509,1 584,2 584,171 698,171 698,234 509,234 "/>
   <path class="fil0" d="M459 16c5,5 9,10 11,15 3,6 4,11 5,17 0,6 1,13 1,22l0 98c0,13 -1,23 -3,30 -2,8 -6,15 -13,22 -5,4 -9,7 -14,9 -5,2 -10,4 -15,4 -6,1 -12,1 -19,1l-81 0c-17,0 -32,-2 -44,-5 -12,-4 -22,-11 -28,-21 -4,-5 -7,-11 -8,-18 -1,-7 -1,-16 -1,-26l0 -92c0,-13 1,-24 4,-33 3,-9 8,-17 15,-24 7,-5 15,-9 24,-12 8,-2 18,-3 30,-3l88 0c11,0 20,1 27,3 7,2 14,7 21,13zm-137 49l0 106 81 0 0 -106 -81 0z"/>
   <path class="fil0" d="M0 1l161 0c7,0 13,0 18,0 4,1 9,2 13,4 5,1 9,4 12,7 6,7 10,13 13,20 2,7 3,16 3,26l0 38c0,12 -1,21 -3,28 -2,7 -6,13 -12,19 -5,5 -12,8 -21,11 -8,2 -14,4 -16,4l-94 0 0 75 -74 0 0 -232zm74 103l71 0 0 -40 -71 0 0 40z"/>
  </g>
 </g>
</svg>
